PathFileType	4	(X/Y/Z)	Patient4_TMGait_0pt7_02_right_05.trc.trc
DataRate	CameraRate	NumFrames	NumMarkers	Units	OrigDataRate	OrigDataStartFrame	OrigNumFrames
89.171974522293	89.171974522293	4	33	mm	89.171974522293	124	       141
Frame#	Time	Sacral			L.Shoulder			Chest			R.Shoulder			Neck			R.ASIS			L.ASIS			R.Thigh.Superior			R.Thigh.Lateral			R.Thigh.Inferior			R.Patella			L.Thigh.Superior			L.Thigh.Lateral			L.Thigh.Inferior			L.Patella			L.Shank.Superior			L.Shank.Lateral			L.Shank.Inferior			R.Shank.Superior			R.Shank.Lateral			R.Shank.Inferior			R.Heel			R.Midfoot.Superior			R.Midfoot.Lateral			R.Toe			L.Heel			L.Midfoot.Lateral			L.Midfoot.Superior			L.Toe			L.Elbow			L.Wrist			R.Elbow			R.Wrist			
		X1	Y1	Z1	X2	Y2	Z2	X3	Y3	Z3	X4	Y4	Z4	X5	Y5	Z5	X6	Y6	Z6	X7	Y7	Z7	X8	Y8	Z8	X9	Y9	Z9	X10	Y10	Z10	X11	Y11	Z11	X12	Y12	Z12	X13	Y13	Z13	X14	Y14	Z14	X15	Y15	Z15	X16	Y16	Z16	X17	Y17	Z17	X18	Y18	Z18	X19	Y19	Z19	X20	Y20	Z20	X21	Y21	Z21	X22	Y22	Z22	X23	Y23	Z23	X24	Y24	Z24	X25	Y25	Z25	X26	Y26	Z26	X27	Y27	Z27	X28	Y28	Z28	X29	Y29	Z29	X30	Y30	Z30	X31	Y31	Z31	X32	Y32	Z32	X33	Y33	Z33	

124	6.179357142857	841.121907476297	1005.575674279164	454.764218029572	1063.785936838642	1427.512293446710	290.441332313051	1150.349250836253	1345.580326871625	456.346651438142	1059.321238244071	1426.947877244282	622.858640867631	1052.688032685115	1481.875756140115	443.947558916618	1056.980705579977	927.871536644785	583.357482451460	806.813567955068	721.240126284829	237.635667225831	1122.438517917412	751.261987537645	561.199929914497	1063.967671226650	632.494339186605	629.564517566516	1155.133772889886	593.081808961782	554.006258894678	1180.870863887889	510.928111201629	569.305132918687	1058.172625523035	722.723222827433	333.450197252516	944.229394307185	630.615518555144	265.550887702638	1002.435477785070	534.867636232049	329.271628368591	986.969902159026	466.003141710084	336.634161119409	948.865735344445	401.260922978518	326.012302513194	841.500346377303	305.897701830438	269.442204095267	867.418525232306	186.104025895945	338.938518043652	1165.865630655219	421.178734256122	579.913965225994	1108.481221844608	306.872148610897	637.595454812387	1181.048952660249	221.767218939859	589.355595537138	1088.306933180687	40.789185816568	556.298630354894	1251.592634805128	108.501511851314	600.693560571345	1169.387728038573	38.044847201583	632.326026139202	1373.923180283134	67.711563197000	630.925632154728	718.437005692942	40.641807567115	373.363440076851	794.045854057965	35.541359301835	295.019237676514	878.331371182330	95.553656335919	323.584221533745	1006.615636723920	40.091251159758	297.098401892656	1086.491551724255	1101.340668231671	131.482577561754	1333.920420035693	1115.692185876463	178.299823208975	879.708371742416	1141.710192966461	745.238901257443	810.183844544953	889.529472042571	759.822454228282	
125	6.190571428571	842.340125557616	1004.199408757961	458.491547070566	1063.163074643525	1426.151910037101	293.245363743961	1150.560541036380	1344.876162616651	459.063465036585	1059.702435451185	1425.977077858201	625.874002800082	1052.607231100081	1480.936482556564	446.892634940991	1058.666402503032	926.505956306290	586.342554582623	845.067964923606	754.287418689084	251.581684698749	1123.839890548564	749.051161095765	564.892428914334	1062.839951694668	630.443092795169	631.042892111088	1154.644628625254	591.298382658743	556.333853677380	1178.598810537250	508.530595304214	570.295321554269	1059.357366982662	721.538777915209	335.802319307084	944.943939255541	629.499853201449	268.253526847623	1003.830168565453	533.348242836496	331.096890535489	988.533426118108	463.563399432996	337.867626595183	948.261189875156	399.545192066741	327.449691611216	838.486210719867	306.891892562580	270.888348994735	862.176955147627	186.065009614136	339.296837121795	1163.589955525254	418.500352238477	580.528109318473	1105.323857269441	304.432532228943	637.667059310453	1176.851064944746	219.013411413059	588.828152501041	1081.447514168462	40.685778608383	555.202893218981	1245.974840121716	104.921155508396	599.256347711599	1162.357472571567	37.020196853203	631.515663924022	1367.678233672445	62.048682962638	629.688514552223	710.738944911912	42.682889143919	373.114277226682	786.342717465856	36.448303307539	294.962926168460	871.302023791160	95.716912707526	323.331841943366	998.813177383371	39.772546862799	296.974254619843	1083.768528643950	1099.176789138320	135.131908814390	1331.252182682460	1113.862327698909	182.208888991159	880.216981944070	1140.067623941705	746.674864047625	809.710685270390	887.977509406087	759.907616671647	
126	6.201785714286	843.326602825484	1003.236736686367	462.188084574905	1062.651055754277	1425.035283936483	296.124466575835	1150.844740073849	1344.344606727356	461.851840979538	1060.207982041356	1425.169357030225	629.020766452718	1052.743498263514	1480.272028574085	449.941641482366	1060.143214698025	925.537078747324	589.434443834430	894.774701261555	797.957232100143	268.913884132981	1125.439086488564	747.607256611271	568.515510120814	1062.331327363602	629.192479289689	632.602735337085	1154.683792129526	590.286770482552	558.662028971633	1176.972480033005	506.721906640152	571.437800054579	1060.926929005208	720.736895907323	338.316105843089	946.487689698643	628.392680405010	271.080362411601	1006.500065028866	531.982445671625	333.001260329052	991.512811604111	461.098202937166	339.036420480325	948.793207838380	397.891851592796	328.889535004346	836.395196157783	308.359022652315	272.413435747730	857.588679117114	186.445428009920	339.627122282732	1161.648326301178	416.401569573588	581.251342210233	1102.384345030901	302.785631609069	638.215278132412	1172.298603427468	216.758935184014	588.481047976637	1073.630870052464	40.944841471369	554.496419724875	1239.461190237435	101.879172937125	598.119846079483	1154.445450209647	36.419557528601	631.050096433759	1360.565318645620	56.990416352952	628.683068276344	703.283794788425	45.863811757225	372.829041293172	778.782685589305	38.015491667832	294.889776739474	864.673453371138	96.078579997904	323.009048852704	990.970689917328	39.333278599556	296.876141099831	1080.457213616777	1097.023306609941	139.081985704665	1328.235218144085	1110.713867605924	186.066555943800	881.620935143852	1137.835760578261	748.123743169833	810.695436222063	885.668717112259	759.918676489400	
127	6.213000000000	844.061036215675	1002.727208325812	465.823402699929	1062.287816161024	1424.234679352443	299.063877336835	1151.192600597841	1344.005057505890	464.694430438260	1060.848948103923	1424.580448845848	632.263225103940	1053.109549999255	1479.921710516024	453.063297216546	1061.377431581552	925.012874312202	592.631056526239	947.293153874340	844.575142870750	287.102143437831	1127.089436252087	746.920119862107	571.998926837970	1062.354728886422	628.723452781381	634.310484465122	1155.064110829273	589.942817190038	560.986709342755	1175.819450854725	505.475315008767	572.804975524417	1062.866987526271	720.398574391517	340.972988933975	948.937726563115	627.333015336951	273.962843644774	1010.534166422928	530.846163443784	334.940810215454	995.973804584159	458.696464800183	340.089403456782	950.571948424017	396.374994930804	330.283070607199	835.362610301118	310.383727448413	273.981751450746	853.786640698227	187.365401631834	339.926731082881	1159.922450348649	414.875847581783	582.155705405602	1099.624070082908	301.859679756834	639.257998821449	1167.509100992830	215.022885048862	588.372967121744	1065.299039379801	41.390576014304	554.164932872544	1232.353031735380	99.504107449957	597.352772234676	1146.079622748961	36.147632660675	630.910386213922	1352.930064152134	52.847269418174	627.977002006431	696.195065062527	50.426159147690	372.540089418693	771.442392415806	40.441823553804	294.817136738595	858.546901624296	96.722158490955	322.635846984775	983.089541750952	38.743714614070	296.823366557394	1076.567397068643	1094.992058082147	143.330110195804	1324.854230296959	1106.236559127254	189.859429475095	883.883995424343	1135.135838708002	749.591341440675	813.174429064514	882.710389589160	759.911055176644	
